<?xml version="1.0" encoding="UTF-8" standalone="no"?>
<!-- Generator: Adobe Illustrator 16.0.3, SVG Export Plug-In . SVG Version: 6.00 Build 0)  -->

<svg
   xmlns:dc="http://purl.org/dc/elements/1.1/"
   xmlns:cc="http://creativecommons.org/ns#"
   xmlns:rdf="http://www.w3.org/1999/02/22-rdf-syntax-ns#"
   xmlns:svg="http://www.w3.org/2000/svg"
   xmlns="http://www.w3.org/2000/svg"
   xmlns:xlink="http://www.w3.org/1999/xlink"
   xmlns:sodipodi="http://sodipodi.sourceforge.net/DTD/sodipodi-0.dtd"
   xmlns:inkscape="http://www.inkscape.org/namespaces/inkscape"
   version="1.1"
   id="Layer_3"
   x="0px"
   y="0px"
   width="230.36995"
   height="150.5869"
   viewBox="0 0 230.36996 150.58691"
   xml:space="preserve"
   inkscape:version="0.91 r13725"
   sodipodi:docname="orc.svg"><metadata
     id="metadata19"><rdf:RDF><cc:Work
         rdf:about=""><dc:format>image/svg+xml</dc:format><dc:type
           rdf:resource="http://purl.org/dc/dcmitype/StillImage" /><dc:title></dc:title></cc:Work></rdf:RDF></metadata><defs
     id="defs17"><linearGradient
       inkscape:collect="always"
       id="linearGradient6596"><stop
         style="stop-color:#00ab00;stop-opacity:1"
         offset="0"
         id="stop6598" /><stop
         style="stop-color:#007e00;stop-opacity:1"
         offset="1"
         id="stop6600" /></linearGradient><pattern
       y="0"
       x="0"
       height="6"
       width="6"
       patternUnits="userSpaceOnUse"
       id="EMFhbasepattern" /><linearGradient
       inkscape:collect="always"
       xlink:href="#linearGradient6596"
       id="linearGradient6602"
       x1="47.040482"
       y1="-11.321753"
       x2="156.82474"
       y2="138.77065"
       gradientUnits="userSpaceOnUse"
       gradientTransform="translate(24.016173,12.185349)" /><linearGradient
       inkscape:collect="always"
       xlink:href="#linearGradient6596"
       id="linearGradient6610"
       x1="-25.499298"
       y1="-3.2390223"
       x2="142.63261"
       y2="126.08961"
       gradientUnits="userSpaceOnUse"
       gradientTransform="translate(24.016173,12.185349)" /><linearGradient
       inkscape:collect="always"
       xlink:href="#linearGradient6596"
       id="linearGradient6618"
       x1="80.046043"
       y1="-33.494804"
       x2="199.82803"
       y2="64.094917"
       gradientUnits="userSpaceOnUse"
       gradientTransform="translate(24.016173,12.185349)" /></defs><sodipodi:namedview
     pagecolor="#ffffff"
     bordercolor="#666666"
     borderopacity="1"
     objecttolerance="10"
     gridtolerance="10"
     guidetolerance="10"
     inkscape:pageopacity="0"
     inkscape:pageshadow="2"
     inkscape:window-width="1536"
     inkscape:window-height="801"
     id="namedview15"
     showgrid="false"
     inkscape:zoom="2.3838384"
     inkscape:cx="121.81174"
     inkscape:cy="88.878541"
     inkscape:window-x="-8"
     inkscape:window-y="-8"
     inkscape:window-maximized="1"
     inkscape:current-layer="g6664"
     fit-margin-top="0"
     fit-margin-left="0"
     fit-margin-right="0"
     fit-margin-bottom="0" /><path
     style="opacity:1;fill:url(#linearGradient6618);fill-opacity:1;stroke:#000000;stroke-width:1.80000007;stroke-linecap:round;stroke-linejoin:bevel;stroke-miterlimit:4;stroke-dasharray:none;stroke-dashoffset:0;stroke-opacity:1"
     d="m 229.47053,20.850966 c 0,0 -1.31727,36.903595 -18.72618,51.394214 C 193.33544,86.735801 164.25441,93.867825 145.79007,88.174981 127.32574,82.48214 126.47017,66.1202 143.87908,51.62958 161.28799,37.138961 229.47053,20.850966 229.47053,20.850966 Z"
     id="path6577"
     inkscape:connector-curvature="0"
     sodipodi:nodetypes="csssc" /><path
     sodipodi:nodetypes="csssc"
     inkscape:connector-curvature="0"
     id="path4444"
     d="m 0.89942723,20.850966 c 0,0 1.31726997,36.903595 18.72618577,51.394214 C 37.03452,86.735801 66.115556,93.867825 84.579889,88.174981 103.04422,82.48214 103.8998,66.1202 86.490884,51.62958 69.081975,37.138961 0.89942723,20.850966 0.89942723,20.850966 Z"
     style="opacity:1;fill:url(#linearGradient6610);fill-opacity:1;stroke:#000000;stroke-width:1.80000007;stroke-linecap:round;stroke-linejoin:bevel;stroke-miterlimit:4;stroke-dasharray:none;stroke-dashoffset:0;stroke-opacity:1" /><path
     inkscape:connector-curvature="0"
     id="path4160"
     d="m 116.17113,20.712766 c -25.307403,0.0554 -49.250083,4.86737 -61.875343,27.60007 -12.68222,22.78807 -9.55437,49.281922 -1.5924,74.061324 9.906992,25.56811 40.100907,26.58614 65.052353,26.52802 24.95144,-0.0581 53.52475,-1.42931 61.88371,-26.52802 7.96122,-24.779402 11.03226,-51.273254 -1.5924,-74.061324 -12.62543,-22.7327 -36.56821,-27.54477 -61.87592,-27.60007 z"
     style="fill:url(#linearGradient6602);fill-opacity:1;fill-rule:nonzero;stroke:#1a1a1a;stroke-width:3.36512375px;stroke-linecap:round;stroke-linejoin:bevel;stroke-miterlimit:4;stroke-dasharray:none;stroke-opacity:1"
     sodipodi:nodetypes="ccczccc" /><path
     inkscape:connector-curvature="0"
     id="path4162"
     d="m 143.58306,122.70603 c 0,7.57765 -12.96665,13.66188 -29.00434,13.66188 -15.525613,0 -28.264713,-5.75236 -28.947173,-13.05344 z"
     style="fill:#000000;fill-opacity:1;fill-rule:nonzero;stroke:none" /><path
     inkscape:connector-curvature="0"
     id="path4164"
     d="m 143.58306,122.70603 c 0,7.57765 -12.96665,13.66188 -29.00434,13.66188 -15.525613,0 -28.264713,-5.75236 -28.947173,-13.05344"
     style="fill:none;stroke:#000000;stroke-width:0.67302477px;stroke-linecap:butt;stroke-linejoin:miter;stroke-miterlimit:4;stroke-dasharray:none;stroke-opacity:1" /><path
     inkscape:connector-curvature="0"
     id="path4166"
     d="m 119.46966,132.27489 c 3.41228,0.22133 6.19895,0.94028 7.56386,2.76555 -2.1611,0.27655 -4.20846,0.55312 -6.59706,0.66373 -0.51184,-1.60401 -2.16109,-2.37839 -4.32221,-3.26335 0.96683,-0.16593 2.10424,-0.27657 3.35541,-0.16593 z m -3.35541,0.16593 c -0.057,0.0554 -0.11365,0.0554 -0.11365,0.0554 2.10424,0.88496 5.85773,3.15274 4.26533,3.31867 -4.60656,0.5531 -9.61122,0.4978 -14.72963,-0.11053 -0.73912,-0.0554 -1.47843,-0.16594 -2.21776,-0.27658 0.68245,-2.5443 4.32198,-4.20363 8.70108,-3.92708 1.47865,0.11053 2.84356,0.4978 4.09474,0.94028 z"
     style="fill:#ff0000;fill-opacity:1;fill-rule:nonzero;stroke:#000000;stroke-width:0.84128094px;stroke-linecap:butt;stroke-linejoin:miter;stroke-miterlimit:4;stroke-dasharray:none;stroke-opacity:1" /><path
     inkscape:connector-curvature="0"
     id="path4168"
     d="m 146.99533,83.269146 c -13.36472,0.66373 -24.85273,-9.18144 -24.85273,-9.18144 0,0 10.06621,-15.81893 23.43097,-16.48259 13.36473,-0.60844 26.50199,6.25008 26.50199,6.25008 0,0 -11.71547,18.75021 -25.08023,19.41395 z"
     style="fill:#ffffff;fill-opacity:1;fill-rule:nonzero;stroke:#000000;stroke-width:0.89736629px;stroke-linecap:butt;stroke-linejoin:miter;stroke-miterlimit:4;stroke-dasharray:none;stroke-opacity:1" /><path
     inkscape:connector-curvature="0"
     id="path4170"
     d="m 142.31963,79.22653 c -4.72031,0.22133 -8.70131,-2.87619 -8.9288,-6.969 -0.22758,-4.0377 3.35542,-7.52223 8.07573,-7.74349 4.66345,-0.22133 8.64442,2.87612 8.87191,6.91382 0.22758,4.09304 -3.35539,7.57742 -8.01884,7.79867 z"
     style="fill:#d35f5f;fill-opacity:1;fill-rule:nonzero;stroke:#000000;stroke-width:0.78519553px;stroke-linecap:butt;stroke-linejoin:miter;stroke-miterlimit:4;stroke-dasharray:none;stroke-opacity:1" /><path
     inkscape:connector-curvature="0"
     id="path4174"
     d="m 85.062907,82.992596 c 13.3646,0.88496 24.966123,-8.79427 24.966123,-8.79427 0,0 -9.78162,-15.92955 -23.203183,-16.81446 -13.36459,-0.82967 -26.61551,5.86292 -26.61551,5.86292 0,0 11.43104,18.91614 24.85257,19.74581 z"
     style="fill:#ffffff;fill-opacity:1;fill-rule:nonzero;stroke:#000000;stroke-width:0.89736629px;stroke-linecap:butt;stroke-linejoin:miter;stroke-miterlimit:4;stroke-dasharray:none;stroke-opacity:1" /><path
     inkscape:connector-curvature="0"
     id="path4176"
     d="m 91.435935,79.520709 c 5.722116,0.315487 10.676575,-3.154933 11.025475,-7.760926 0.41868,-4.669307 -3.977492,-8.70756 -9.699632,-9.023047 -5.791897,-0.315477 -10.67656,3.154853 -11.095256,7.761074 -0.348902,4.606233 4.047371,8.644302 9.769413,9.022899 z"
     style="fill:#de8787;fill-opacity:1;fill-rule:nonzero;stroke:#000000;stroke-width:0.78519553px;stroke-linecap:butt;stroke-linejoin:miter;stroke-miterlimit:4;stroke-dasharray:none;stroke-opacity:1" /><path
     inkscape:connector-curvature="0"
     id="path4206"
     d="m 187.54379,36.918866 c -4.43596,86.340284 -4.5497,87.059344 -4.5497,87.059344 z"
     style="fill:#483737;fill-opacity:1;fill-rule:nonzero;stroke:none" /><path
     inkscape:connector-curvature="0"
     id="path4210"
     d="m 168.60643,40.403396 c 5.85773,82.634504 5.85773,83.353554 5.85773,83.353554 z"
     style="fill:#483737;fill-opacity:1;fill-rule:nonzero;stroke:none" /><path
     inkscape:connector-curvature="0"
     id="path4214"
     d="m 178.78638,39.960916 c -0.22757,98.564124 -0.28435,99.393794 -0.28435,99.393794 z"
     style="fill:#483737;fill-opacity:1;fill-rule:nonzero;stroke:none" /><path
     inkscape:connector-curvature="0"
     id="path4222"
     d="m 44.649987,36.918866 c 4.43596,86.340284 4.49281,87.059344 4.49281,87.059344 z"
     style="fill:#483737;fill-opacity:1;fill-rule:nonzero;stroke:none" /><g
     id="g4147"
     transform="matrix(0.41152587,0,0,0.33232023,-9.0815728,-120.85214)" /><path
     style="opacity:1;fill:#800000;fill-opacity:1;stroke:#000000;stroke-width:1.80000019;stroke-linecap:round;stroke-linejoin:bevel;stroke-miterlimit:4;stroke-dasharray:none;stroke-dashoffset:0;stroke-opacity:1"
     d="m 167.12018,44.567364 -6.82292,4.007017 -0.69117,-0.219191 5.09731,-3.500611 -5.28505,3.438771 -0.45186,-0.143839 -0.89289,0.473894 3.43857,-2.707873 -6.82025,4.502443 -2.15495,1.143104 0.96781,-2.161324 -3.18743,3.338599 -0.33168,0.175846 1.57895,-2.825252 -6.77118,5.578649 -1.76918,0.939784 1.73063,-3.366635 -4.00866,4.574841 -0.98879,0.524292 -2.38273,-1.045134 2.01549,1.24066 -1.73361,0.920105 -5.45843,1.722161 3.147,-0.496004 -5.10668,2.70776 -4.6122,1.924946 2.43009,-0.767137 -11.17757,5.930717 2.84755,0.909424 -1.83918,1.004808 1.87328,-0.993211 1.15425,0.36819 -1.41609,0.945084 1.56606,-0.897208 0.20694,0.06591 -4.71314,2.792155 4.87456,-2.741061 1.00039,0.319892 -3.44453,2.314253 3.79562,-2.201106 0.85431,0.272435 3.09159,-1.63971 -2.49311,1.754432 3.33169,-2.198912 4.53749,-2.40862 -1.67095,1.872052 5.41341,-3.856963 2.01099,-1.066536 -0.95621,1.840365 1.17303,-1.954137 1.44999,-0.770428 1.1902,0.900668 2.32273,-2.763375 1.90669,-1.011164 3.42286,-0.05512 -0.45843,-1.51797 2.22586,-1.180522 3.46232,-0.361235 -1.858,-0.490519 3.62973,-1.924568 2.74276,-0.966678 -1.24082,0.170507 8.85367,-4.698069 -2.15639,-0.690233 1.98905,-1.02768 -2.12197,0.985602 -0.44043,-0.140625 2.9458,-1.492609 -3.37285,1.355419 -0.84675,-0.269646 7.1319,-3.77863 -7.22102,3.749214 -0.92444,-0.295846 6.41097,-4.138621 z"
     id="rect4386"
     inkscape:connector-curvature="0" /><path
     style="opacity:1;fill:#800000;fill-opacity:1;stroke:#000000;stroke-width:0.69999999;stroke-linecap:round;stroke-linejoin:bevel;stroke-miterlimit:4;stroke-dasharray:none;stroke-dashoffset:0;stroke-opacity:1"
     d="m 122.05431,0.34692976 -4.09023,12.77011324 -2.0667,-11.0346752 0.45599,12.2029332 -6.59538,-11.5776775 1.94611,15.4880185 -7.30063,-12.4450169 4.42785,13.9966469 -10.104129,-8.750741 5.529269,7.216238 -12.002618,-3.127678 8.516048,5.707737 -12.244796,-2.053639 12.483656,4.198727 31.26422,0.924133 13.12705,-8.315437 -13.93239,6.428071 11.12793,-8.650278 -15.06517,5.912345 7.54349,-9.4590724 -11.32947,7.0154674 8.23433,-12.8438492 -9.16943,12.1108002 -0.75503,-15.71316224 z m 21.4467,22.01422224 -7.85044,1.600729 2.05712,0.06081 5.79332,-1.661537 z"
     id="path6579"
     inkscape:connector-curvature="0" /><path
     style="fill:none;fill-rule:evenodd;stroke:#000000;stroke-width:1px;stroke-linecap:butt;stroke-linejoin:miter;stroke-opacity:1"
     d="M 146.52519,15.909113 C 135.25343,26.884249 135.25343,26.884249 135.25343,26.884249"
     id="path4374"
     inkscape:connector-curvature="0" /><path
     style="fill:none;fill-rule:evenodd;stroke:#000000;stroke-width:1px;stroke-linecap:butt;stroke-linejoin:miter;stroke-opacity:1"
     d="m 110.04028,12.349609 c -4.746,13.644763 -4.746,13.644763 -4.746,13.644763"
     id="path4376"
     inkscape:connector-curvature="0" /><path
     style="fill:none;fill-rule:evenodd;stroke:#000000;stroke-width:1px;stroke-linecap:butt;stroke-linejoin:miter;stroke-opacity:1"
     d="m 78.004747,20.655117 c 10.678511,6.822382 10.678511,6.822382 10.678511,6.822382"
     id="path4378"
     inkscape:connector-curvature="0" /><path
     style="fill:none;fill-rule:evenodd;stroke:#000000;stroke-width:1px;stroke-linecap:butt;stroke-linejoin:miter;stroke-opacity:1"
     d="m 129.32091,21.248368 c -9.78862,7.712258 -9.492,7.415632 -9.492,7.415632"
     id="path4380"
     inkscape:connector-curvature="0" /><path
     style="fill:none;fill-rule:evenodd;stroke:#000000;stroke-width:1px;stroke-linecap:butt;stroke-linejoin:miter;stroke-opacity:1"
     d="m 163.72946,28.070749 c -13.94139,5.339256 -14.23802,5.339256 -14.23802,5.339256"
     id="path4382"
     inkscape:connector-curvature="0" /><path
     style="fill:none;fill-rule:evenodd;stroke:#000000;stroke-width:1px;stroke-linecap:butt;stroke-linejoin:miter;stroke-opacity:1"
     d="M 72.962117,33.706631 C 61.690356,30.147127 61.690356,30.443752 61.690356,30.443752"
     id="path4384"
     inkscape:connector-curvature="0" /><path
     style="fill:none;fill-rule:evenodd;stroke:#000000;stroke-width:1px;stroke-linecap:butt;stroke-linejoin:miter;stroke-opacity:1"
     d="m 88.090007,18.875365 c 6.525757,5.635881 6.229131,5.339256 6.229131,5.339256"
     id="path4386"
     inkscape:connector-curvature="0" /><ellipse
     style="opacity:1;fill:#483737;fill-opacity:1;stroke:#000000;stroke-width:3.0999999;stroke-linecap:round;stroke-linejoin:bevel;stroke-miterlimit:4;stroke-dasharray:none;stroke-dashoffset:0;stroke-opacity:1"
     id="path4446"
     cx="115.23857"
     cy="101.54769"
     rx="24.220942"
     ry="16.558315" /><ellipse
     style="opacity:1;fill:#333333;fill-opacity:1;stroke:#000000;stroke-width:3.0999999;stroke-linecap:round;stroke-linejoin:bevel;stroke-miterlimit:4;stroke-dasharray:none;stroke-dashoffset:0;stroke-opacity:1"
     id="path4448"
     cx="107.10295"
     cy="96.400719"
     rx="5.0426302"
     ry="5.4875679" /><ellipse
     ry="5.4875679"
     rx="5.0426302"
     cy="96.820213"
     cx="124.30723"
     id="ellipse4450"
     style="opacity:1;fill:#333333;fill-opacity:1;stroke:#000000;stroke-width:3.0999999;stroke-linecap:round;stroke-linejoin:bevel;stroke-miterlimit:4;stroke-dasharray:none;stroke-dashoffset:0;stroke-opacity:1" /><path
     inkscape:connector-curvature="0"
     id="path6590"
     d="m 63.205776,46.832336 7.07116,3.550651 0.675297,-0.264074 -5.316038,-3.158574 5.499315,3.084547 0.441447,-0.173181 0.922063,0.41428 -3.608853,-2.476392 7.101008,4.045184 2.225317,0.999229 -1.107553,-2.093156 3.399643,3.122239 0.342504,0.153702 -1.760943,-2.71555 7.122664,5.122291 1.827036,0.821662 -1.947823,-3.245812 4.300227,4.301927 1.021064,0.458276 2.309011,-1.199239 -1.929732,1.370245 1.790252,0.80436 5.559675,1.360259 -3.172765,-0.288424 5.273358,2.366816 4.72858,1.618138 -2.47519,-0.606018 11.54267,5.184446 -2.78175,1.094325 1.90116,0.881953 -1.93441,-0.868144 -1.1276,0.44314 1.47504,0.850122 -1.62156,-0.792508 -0.20217,0.07935 4.88621,2.476854 -5.04392,-2.415278 -0.97725,0.38485 3.58897,2.08323 -3.93188,-1.947288 -0.83459,0.327909 -3.19252,-1.433302 2.60286,1.58705 -3.4688,-1.975543 -4.685774,-2.105672 1.790194,1.758367 -5.65484,-3.493414 -2.076643,-0.932273 1.074916,1.77365 -1.298734,-1.872949 -1.497422,-0.673617 -1.128531,0.976829 -2.49906,-2.604998 -1.968934,-0.883865 -3.4191,0.169611 0.357831,-1.544781 -2.29853,-1.031913 -3.478562,-0.133254 1.821807,-0.611387 -3.7482,-1.682231 -2.800284,-0.784611 1.249335,0.08872 -9.142881,-4.106953 2.106448,-0.83025 -2.0522,-0.894941 2.182073,0.844231 0.430252,-0.169224 -3.037397,-1.296084 3.454524,1.131167 0.827231,-0.32463 -7.364487,-3.302481 7.451484,3.26728 0.903034,-0.355871 -6.668734,-3.709004 z"
     style="opacity:1;fill:#800000;fill-opacity:1;stroke:#000000;stroke-width:1.80000019;stroke-linecap:round;stroke-linejoin:bevel;stroke-miterlimit:4;stroke-dasharray:none;stroke-dashoffset:0;stroke-opacity:1" /><path
     inkscape:connector-curvature="0"
     id="path6592"
     d="m 144.4488,24.807872 c -9.78862,7.712257 -9.492,7.415631 -9.492,7.415631"
     style="fill:none;fill-rule:evenodd;stroke:#000000;stroke-width:1px;stroke-linecap:butt;stroke-linejoin:miter;stroke-opacity:1" /><path
     inkscape:connector-curvature="0"
     id="path6594"
     d="m 91.649512,24.511246 c 10.678508,6.822382 10.678508,6.822382 10.678508,6.822382"
     style="fill:none;fill-rule:evenodd;stroke:#000000;stroke-width:1px;stroke-linecap:butt;stroke-linejoin:miter;stroke-opacity:1" /><path
     style="opacity:1;fill:#ffffff;fill-opacity:1;stroke:#000000;stroke-width:0.60000008;stroke-linecap:round;stroke-linejoin:bevel;stroke-miterlimit:4;stroke-dasharray:none;stroke-dashoffset:0;stroke-opacity:1"
     d="m 133.39703,114.46855 -3.25977,10.27344 -3.25976,10.27344 0.26172,-0.004 c 4.63434,-1.04735 8.59609,-2.64306 11.45898,-4.63086 l -1.86719,-5.71289 -3.33398,-10.19922 z"
     id="path6620"
     inkscape:connector-curvature="0" /><path
     id="path6630"
     d="m 96.186215,114.46855 3.25977,10.27344 3.259765,10.27344 -0.26172,-0.004 c -4.634345,-1.04735 -8.596095,-2.64306 -11.458985,-4.63086 l 1.86719,-5.71289 3.33398,-10.19922 z"
     style="opacity:1;fill:#ffffff;fill-opacity:1;stroke:#000000;stroke-width:0.60000008;stroke-linecap:round;stroke-linejoin:bevel;stroke-miterlimit:4;stroke-dasharray:none;stroke-dashoffset:0;stroke-opacity:1"
     inkscape:connector-curvature="0" /><g
     id="g6649"><ellipse
       ry="1.6779659"
       rx="2.2023304"
       cy="67.632446"
       cx="203.76799"
       id="path6647"
       style="opacity:1;fill:#000000;fill-opacity:1;stroke:#000000;stroke-width:0.20000002;stroke-linecap:round;stroke-linejoin:bevel;stroke-miterlimit:4;stroke-dasharray:none;stroke-dashoffset:0;stroke-opacity:1" /><path
       inkscape:connector-curvature="0"
       id="path6632"
       d="m 201.66932,66.193359 a 8.2680417,9.7886317 0 0 0 -8.26757,9.789063 8.2680417,9.7886317 0 0 0 8.26757,9.787109 8.2680417,9.7886317 0 0 0 8.26758,-9.787109 8.2680417,9.7886317 0 0 0 -0.33398,-2.710938 l -1.54297,1.470704 c 0.40433,4.620061 -2.33233,9.869703 -7.0586,8.984374 -7.79122,-0.438479 -7.58109,-15.374038 0.21485,-15.513671 0.20147,-0.01613 0.40359,-0.02144 0.60547,-0.01563 0.60567,0.01748 1.20824,0.133604 1.78711,0.345703 0.0469,0.01382 0.0887,0.03405 0.13476,0.04883 l 1.17188,-1.601563 a 8.2680417,9.7886317 0 0 0 -3.2461,-0.796875 z"
       style="opacity:1;fill:#ffff00;fill-opacity:1;stroke:#000000;stroke-width:0.9000001;stroke-linecap:round;stroke-linejoin:bevel;stroke-miterlimit:4;stroke-dasharray:none;stroke-dashoffset:0;stroke-opacity:1" /></g><g
     id="g6664"
     transform="translate(-79.913145,28.105935)" /></svg>